<?xml version="1.0" encoding="UTF-8" standalone="no"?>
<!DOCTYPE svg PUBLIC "-//W3C//DTD SVG 1.1//EN" "http://www.w3.org/Graphics/SVG/1.1/DTD/svg11.dtd">
<svg width="100%" height="100%" viewBox="0 0 62 55" version="1.1" xmlns="http://www.w3.org/2000/svg" xmlns:xlink="http://www.w3.org/1999/xlink" xml:space="preserve" xmlns:serif="http://www.serif.com/" style="fill-rule:evenodd;clip-rule:evenodd;stroke-linejoin:round;stroke-miterlimit:2;">
    <g transform="matrix(1,0,0,1,-11391.6,-31.3633)">
        <g transform="matrix(1,0,0,6.16458,11127.6,1)">
            <g transform="matrix(1,0,0,0.162217,-8647.72,-0.162217)">
                <path d="M8964.99,86.131C8963.38,86.131 8961.82,85.913 8960.32,85.477C8958.81,85.04 8957.61,84.473 8956.7,83.775L8958.3,80.227C8959.17,80.867 8960.2,81.38 8961.41,81.768C8962.61,82.156 8963.81,82.35 8965.01,82.35C8966.35,82.35 8967.34,82.151 8967.98,81.754C8968.62,81.356 8968.94,80.828 8968.94,80.169C8968.94,79.684 8968.75,79.282 8968.37,78.962C8968,78.642 8967.51,78.385 8966.92,78.191C8966.33,77.997 8965.53,77.784 8964.52,77.551C8962.97,77.183 8961.7,76.814 8960.71,76.446C8959.72,76.077 8958.87,75.486 8958.16,74.672C8957.46,73.857 8957.1,72.772 8957.1,71.414C8957.1,70.231 8957.42,69.16 8958.06,68.2C8958.7,67.241 8959.67,66.48 8960.96,65.917C8962.25,65.355 8963.82,65.074 8965.68,65.074C8966.98,65.074 8968.25,65.229 8969.49,65.539C8970.73,65.849 8971.82,66.295 8972.75,66.877L8971.3,70.454C8969.42,69.388 8967.53,68.855 8965.65,68.855C8964.34,68.855 8963.36,69.068 8962.73,69.495C8962.1,69.921 8961.78,70.484 8961.78,71.182C8961.78,71.88 8962.15,72.398 8962.88,72.738C8963.6,73.077 8964.71,73.411 8966.21,73.741C8967.76,74.109 8969.03,74.478 8970.02,74.846C8971.01,75.215 8971.85,75.796 8972.56,76.591C8973.27,77.386 8973.62,78.462 8973.62,79.82C8973.62,80.983 8973.3,82.045 8972.65,83.004C8972,83.964 8971.02,84.725 8969.73,85.287C8968.43,85.85 8966.85,86.131 8964.99,86.131ZM8922.75,86.131C8920.68,86.131 8918.8,85.68 8917.13,84.778C8915.45,83.877 8914.13,82.626 8913.17,81.027C8912.21,79.427 8911.73,77.619 8911.73,75.602C8911.73,73.586 8912.21,71.778 8913.17,70.178C8914.13,68.579 8915.45,67.328 8917.13,66.426C8918.8,65.525 8920.69,65.074 8922.78,65.074C8924.55,65.074 8926.14,65.384 8927.57,66.005C8928.99,66.625 8930.19,67.517 8931.16,68.68L8928.13,71.472C8926.76,69.882 8925.05,69.087 8923.01,69.087C8921.75,69.087 8920.63,69.364 8919.64,69.916C8918.65,70.469 8917.88,71.24 8917.33,72.229C8916.78,73.217 8916.5,74.342 8916.5,75.602C8916.5,76.863 8916.78,77.987 8917.33,78.976C8917.88,79.965 8918.65,80.736 8919.64,81.288C8920.63,81.841 8921.75,82.117 8923.01,82.117C8925.05,82.117 8926.76,81.313 8928.13,79.703L8931.16,82.495C8930.19,83.678 8928.99,84.58 8927.55,85.2C8926.12,85.821 8924.52,86.131 8922.75,86.131ZM8939.81,86.131L8935.1,86.131L8935.1,31.363L8939.81,31.363L8939.81,65.423L8943.91,65.423C8945.72,65.423 8947.28,65.723 8948.61,66.324C8949.94,66.926 8950.96,67.779 8951.68,68.884C8952.4,69.989 8952.75,71.298 8952.75,72.81C8952.75,74.303 8952.4,75.607 8951.68,76.722C8950.96,77.837 8949.94,78.69 8948.61,79.282C8947.28,79.873 8945.72,80.169 8943.91,80.169L8939.81,80.169L8939.81,86.131ZM8943.65,76.329C8945.07,76.329 8946.14,76.024 8946.88,75.413C8947.62,74.803 8947.98,73.935 8947.98,72.81C8947.98,71.666 8947.62,70.789 8946.88,70.178C8946.14,69.567 8945.07,69.262 8943.65,69.262L8939.81,69.262L8939.81,76.329L8943.65,76.329ZM8956.58,52.42C8954.47,52.42 8952.56,51.965 8950.86,51.053C8949.17,50.142 8947.84,48.887 8946.88,47.287C8945.92,45.687 8945.44,43.889 8945.44,41.892C8945.44,39.895 8945.92,38.096 8946.88,36.497C8947.84,34.897 8949.17,33.642 8950.86,32.73C8952.56,31.819 8954.47,31.363 8956.58,31.363C8958.69,31.363 8960.59,31.819 8962.28,32.73C8963.97,33.642 8965.3,34.897 8966.26,36.497C8967.23,38.096 8967.72,39.895 8967.72,41.892C8967.72,43.889 8967.23,45.687 8966.26,47.287C8965.3,48.887 8963.97,50.142 8962.28,51.053C8960.59,51.965 8958.69,52.42 8956.58,52.42ZM8918.24,35.202L8911.73,35.202L8911.73,31.363L8929.47,31.363L8929.47,35.202L8922.96,35.202L8922.96,51.722L8918.24,51.722L8918.24,35.202ZM8956.58,48.407C8957.78,48.407 8958.87,48.13 8959.84,47.578C8960.81,47.025 8961.57,46.254 8962.12,45.266C8962.67,44.277 8962.95,43.152 8962.95,41.892C8962.95,40.632 8962.67,39.507 8962.12,38.518C8961.57,37.529 8960.81,36.758 8959.84,36.206C8958.87,35.653 8957.78,35.377 8956.58,35.377C8955.38,35.377 8954.29,35.653 8953.32,36.206C8952.35,36.758 8951.59,37.529 8951.04,38.518C8950.49,39.507 8950.21,40.632 8950.21,41.892C8950.21,43.152 8950.49,44.277 8951.04,45.266C8951.59,46.254 8952.35,47.025 8953.32,47.578C8954.29,48.13 8955.38,48.407 8956.58,48.407Z" style="fill:rgb(51,51,51);fill-rule:nonzero;"/>
            </g>
        </g>
    </g>
</svg>